<svg width="128" height="128" version="1.1" xmlns="http://www.w3.org/2000/svg" desc="Created with imagetracer.js version 1.2.6" ><path fill="rgb(0,0,0)" stroke="rgb(0,0,0)" stroke-width="1" opacity="0" d="M 0 0 L 128 0 L 128 128 L 0 128 L 0 0 Z M 27 25 L 27 30 L 62 31 L 20 100 Q 19 104 24 102 L 27 97 Q 26 93 29 94 L 31 90 Q 30 87 33 88 L 40 76 Q 39 72 42 73 L 44 69 Q 43 66 46 67 L 46 65 L 53 54 Q 52 51 55 52 L 55 50 L 69 27 L 68 25 L 27 25 Z M 75 25 L 34 89 L 34 91 L 27 100 L 27 102 L 107 102 L 108 101 L 108 98 L 67 98 L 89 60 Q 88 57 91 58 L 91 56 L 108 28 L 108 25 L 75 25 Z " /><path fill="rgb(161,205,248)" stroke="rgb(161,205,248)" stroke-width="1" opacity="0.4666666666666667" d="M 67.5 25 L 69 27.5 L 64.5 34 L 65 32.5 L 68 26.5 L 67.5 25 Z " /><path fill="rgb(161,205,248)" stroke="rgb(161,205,248)" stroke-width="1" opacity="0.4666666666666667" d="M 74.5 25 L 108 25.5 L 74 26 L 70.5 32 L 71 30.5 L 74.5 25 Z " /><path fill="rgb(161,205,248)" stroke="rgb(161,205,248)" stroke-width="1" opacity="0.4666666666666667" d="M 27.5 26 L 28 29 L 64 29.5 L 27 30 L 27.5 26 Z " /><path fill="rgb(161,205,248)" stroke="rgb(161,205,248)" stroke-width="1" opacity="0.4666666666666667" d="M 107.5 27 L 107 28.5 L 98.5 43 L 99 41.5 L 107.5 27 Z " /><path fill="rgb(161,205,248)" stroke="rgb(161,205,248)" stroke-width="1" opacity="0.4666666666666667" d="M 60.5 33 L 59 35.5 L 55.5 42 L 55 40.5 L 60.5 33 Z " /><path fill="rgb(161,205,248)" stroke="rgb(161,205,248)" stroke-width="1" opacity="0.4666666666666667" d="M 69.5 33 L 69 34.5 L 67.5 37 L 67 35.5 L 69.5 33 Z " /><path fill="rgb(161,205,248)" stroke="rgb(161,205,248)" stroke-width="1" opacity="0.4666666666666667" d="M 62.5 37 L 61 39.5 L 61 41.5 L 55 49.5 L 55 52 L 53 51.5 L 62.5 37 Z " /><path fill="rgb(161,205,248)" stroke="rgb(161,205,248)" stroke-width="1" opacity="0.4666666666666667" d="M 66.5 38 L 65 40.5 L 64.5 42 L 64 40.5 L 66.5 38 Z " /><path fill="rgb(161,205,248)" stroke="rgb(161,205,248)" stroke-width="1" opacity="0.4666666666666667" d="M 54.5 43 L 54 44.5 L 52.5 47 L 52 45.5 L 54.5 43 Z " /><path fill="rgb(161,205,248)" stroke="rgb(161,205,248)" stroke-width="1" opacity="0.4666666666666667" d="M 63.5 43 L 62 45.5 L 60.5 48 L 61 46.5 L 63.5 43 Z " /><path fill="rgb(161,205,248)" stroke="rgb(161,205,248)" stroke-width="1" opacity="0.4666666666666667" d="M 96.5 46 L 96 47.5 L 91 55.5 L 91 58 L 89 57.5 L 96.5 46 Z " /><path fill="rgb(161,205,248)" stroke="rgb(161,205,248)" stroke-width="1" opacity="0.4666666666666667" d="M 51.5 48 L 49.5 51 L 51.5 48 Z " /><path fill="rgb(161,205,248)" stroke="rgb(161,205,248)" stroke-width="1" opacity="0.4666666666666667" d="M 59.5 49 L 59 50.5 L 55.5 56 L 56 54.5 L 59.5 49 Z " /><path fill="rgb(161,205,248)" stroke="rgb(161,205,248)" stroke-width="1" opacity="0.4666666666666667" d="M 48.5 52 L 49 53.5 L 46.5 57 L 46 55.5 L 48.5 52 Z " /><path fill="rgb(161,205,248)" stroke="rgb(161,205,248)" stroke-width="1" opacity="0.4666666666666667" d="M 52.5 53 L 52 54.5 L 46 64.5 L 46 67 L 44 66.5 L 52.5 53 Z " /><path fill="rgb(161,205,248)" stroke="rgb(161,205,248)" stroke-width="1" opacity="0.4666666666666667" d="M 54.5 57 L 54 58.5 L 49.5 66 L 49 64.5 L 54.5 57 Z " /><path fill="rgb(161,205,248)" stroke="rgb(161,205,248)" stroke-width="1" opacity="0.4666666666666667" d="M 45.5 58 L 44 60.5 L 43.5 62 L 43 60.5 L 45.5 58 Z " /><path fill="rgb(161,205,248)" stroke="rgb(161,205,248)" stroke-width="1" opacity="0.4666666666666667" d="M 88.5 59 L 88 60.5 Q 88.5 64.5 85.5 65 L 86 63.5 L 88.5 59 Z " /><path fill="rgb(161,205,248)" stroke="rgb(161,205,248)" stroke-width="1" opacity="0.4666666666666667" d="M 42.5 63 L 41 65.5 L 37.5 72 L 37 70.5 L 42.5 63 Z " /><path fill="rgb(161,205,248)" stroke="rgb(161,205,248)" stroke-width="1" opacity="0.4666666666666667" d="M 48.5 67 L 47 69.5 L 42.5 77 L 43 75.5 L 48.5 67 Z " /><path fill="rgb(161,205,248)" stroke="rgb(161,205,248)" stroke-width="1" opacity="0.4666666666666667" d="M 43.5 68 L 43 69.5 L 42 73 L 40 72.5 L 43.5 68 Z " /><path fill="rgb(161,205,248)" stroke="rgb(161,205,248)" stroke-width="1" opacity="0.4666666666666667" d="M 83.5 68 L 82.5 70 L 83.5 68 Z " /><path fill="rgb(161,205,248)" stroke="rgb(161,205,248)" stroke-width="1" opacity="0.4666666666666667" d="M 81.5 71 L 82 72.5 L 79 74.5 L 81.5 71 Z " /><path fill="rgb(161,205,248)" stroke="rgb(161,205,248)" stroke-width="1" opacity="0.4666666666666667" d="M 36.5 73 L 35 75.5 L 34.5 77 L 34 75.5 L 36.5 73 Z " /><path fill="rgb(161,205,248)" stroke="rgb(161,205,248)" stroke-width="1" opacity="0.4666666666666667" d="M 39.5 74 L 40 75.5 L 38 76.5 L 39.5 74 Z " /><path fill="rgb(161,205,248)" stroke="rgb(161,205,248)" stroke-width="1" opacity="0.4666666666666667" d="M 78.5 76 L 79 77.5 L 76 79.5 L 78.5 76 Z " /><path fill="rgb(161,205,248)" stroke="rgb(161,205,248)" stroke-width="1" opacity="0.4666666666666667" d="M 33.5 78 L 32 80.5 L 20.5 100 L 21 98.5 L 27 86.5 L 33.5 78 Z " /><path fill="rgb(161,205,248)" stroke="rgb(161,205,248)" stroke-width="1" opacity="0.4666666666666667" d="M 37.5 78 L 37 79.5 L 33 88 L 31 87.5 L 37.5 78 Z " /><path fill="rgb(161,205,248)" stroke="rgb(161,205,248)" stroke-width="1" opacity="0.4666666666666667" d="M 41.5 78 L 41 79.5 L 34.5 90 L 34 88.5 L 41.5 78 Z " /><path fill="rgb(161,205,248)" stroke="rgb(161,205,248)" stroke-width="1" opacity="0.4666666666666667" d="M 75.5 81 L 76 82.5 L 73 84.5 L 75.5 81 Z " /><path fill="rgb(161,205,248)" stroke="rgb(161,205,248)" stroke-width="1" opacity="0.4666666666666667" d="M 72.5 86 L 73 87.5 L 68.5 94 L 69 92.5 L 72.5 86 Z " /><path fill="rgb(161,205,248)" stroke="rgb(161,205,248)" stroke-width="1" opacity="0.4666666666666667" d="M 29.5 91 L 29 92.5 L 28.5 94 L 28 92.5 L 29.5 91 Z " /><path fill="rgb(161,205,248)" stroke="rgb(161,205,248)" stroke-width="1" opacity="0.4666666666666667" d="M 33.5 91 L 32 93.5 L 27.5 102 L 27 99.5 L 33.5 91 Z " /><path fill="rgb(161,205,248)" stroke="rgb(161,205,248)" stroke-width="1" opacity="0.4666666666666667" d="M 26.5 95 L 27 96.5 L 25 97.5 L 26.5 95 Z " /><path fill="rgb(161,205,248)" stroke="rgb(161,205,248)" stroke-width="1" opacity="0.4666666666666667" d="M 67.5 95 L 67 96.5 L 66.5 98 L 66 96.5 L 67.5 95 Z " /><path fill="rgb(161,205,248)" stroke="rgb(161,205,248)" stroke-width="1" opacity="0.4666666666666667" d="M 24.5 99 L 24 100.5 L 23.5 102 L 23 100.5 L 24.5 99 Z " /><path fill="rgb(68,155,242)" stroke="rgb(68,155,242)" stroke-width="1" opacity="0.7137254901960784" d="M 27.5 25 L 67 25.5 L 27.5 26 L 27.5 25 Z " /><path fill="rgb(68,155,242)" stroke="rgb(68,155,242)" stroke-width="1" opacity="0.7137254901960784" d="M 28.5 28 L 63 28.5 L 28.5 29 L 28.5 28 Z " /><path fill="rgb(68,155,242)" stroke="rgb(68,155,242)" stroke-width="1" opacity="0.7137254901960784" d="M 96.5 45 L 95.5 47 L 96.5 45 Z " /><path fill="rgb(68,155,242)" stroke="rgb(68,155,242)" stroke-width="1" opacity="0.7137254901960784" d="M 50.5 50 L 49.5 52 L 50.5 50 Z " /><path fill="rgb(68,155,242)" stroke="rgb(68,155,242)" stroke-width="1" opacity="0.7137254901960784" d="M 107.5 98 L 108 100.5 L 106.5 102 L 28.5 102 L 28.5 101 L 106.5 101 L 107.5 98 Z " /><path fill="rgb(68,155,242)" stroke="rgb(68,155,242)" stroke-width="1" opacity="0.7137254901960784" d="M 20.5 100 L 23 101.5 L 21.5 102 L 20.5 100 Z " /><path fill="rgb(49,145,242)" stroke="rgb(49,145,242)" stroke-width="1" opacity="0.996078431372549" d="M 66.5 26 Q 68.8 25.3 68 27.5 L 66 28.5 L 66.5 26 Z " /><path fill="rgb(49,145,242)" stroke="rgb(49,145,242)" stroke-width="1" opacity="0.996078431372549" d="M 75.5 26 L 106.5 26 L 107 27.5 L 104.5 31 L 105 29.5 L 106 27.5 L 75.5 27 L 75.5 26 Z " /><path fill="rgb(49,145,242)" stroke="rgb(49,145,242)" stroke-width="1" opacity="0.996078431372549" d="M 73.5 28 L 73 29.5 L 71.5 33 L 71 31.5 L 73.5 28 Z " /><path fill="rgb(49,145,242)" stroke="rgb(49,145,242)" stroke-width="1" opacity="0.996078431372549" d="M 63.5 30 L 66 30.5 L 61 32.5 L 63.5 30 Z " /><path fill="rgb(49,145,242)" stroke="rgb(49,145,242)" stroke-width="1" opacity="0.996078431372549" d="M 60.5 34 L 61.5 36 L 62.5 34 L 63 35.5 L 60.5 39 L 61 37.5 L 60.5 36 L 58 40.5 L 60 40.5 L 55 42.5 L 60.5 34 Z " /><path fill="rgb(49,145,242)" stroke="rgb(49,145,242)" stroke-width="1" opacity="0.996078431372549" d="M 102.5 34 L 102 35.5 L 100.5 38 L 101 36.5 L 102.5 34 Z " /><path fill="rgb(49,145,242)" stroke="rgb(49,145,242)" stroke-width="1" opacity="0.996078431372549" d="M 69.5 35 L 68 37.5 L 64.5 43 L 66 40.5 L 69.5 35 Z " /><path fill="rgb(49,145,242)" stroke="rgb(49,145,242)" stroke-width="1" opacity="0.996078431372549" d="M 99.5 39 L 98.5 41 L 99.5 39 Z " /><path fill="rgb(49,145,242)" stroke="rgb(49,145,242)" stroke-width="1" opacity="0.996078431372549" d="M 57.5 43 L 57 44.5 L 55.5 47 Q 54.3 44.8 53 47.5 L 53.5 49 L 55 48.5 L 52.5 52 L 51.5 51 L 49 52.5 L 54.5 44 L 55.5 46 L 57.5 43 Z " /><path fill="rgb(49,145,242)" stroke="rgb(49,145,242)" stroke-width="1" opacity="0.996078431372549" d="M 97.5 43 L 95.5 46 L 97.5 43 Z " /><path fill="rgb(49,145,242)" stroke="rgb(49,145,242)" stroke-width="1" opacity="0.996078431372549" d="M 63.5 44 L 64 45.5 L 61 47.5 L 63.5 44 Z " /><path fill="rgb(49,145,242)" stroke="rgb(49,145,242)" stroke-width="1" opacity="0.996078431372549" d="M 94.5 48 L 93 50.5 L 87.5 60 L 88 58.5 L 94.5 48 Z " /><path fill="rgb(49,145,242)" stroke="rgb(49,145,242)" stroke-width="1" opacity="0.996078431372549" d="M 60.5 49 L 61 50.5 L 55.5 58 L 56 56.5 L 60.5 49 Z " /><path fill="rgb(49,145,242)" stroke="rgb(49,145,242)" stroke-width="1" opacity="0.996078431372549" d="M 48.5 54 L 50 56.5 L 46 57.5 L 48.5 54 Z " /><path fill="rgb(49,145,242)" stroke="rgb(49,145,242)" stroke-width="1" opacity="0.996078431372549" d="M 48.5 58 L 48 59.5 L 46.5 62 Q 45.3 59.8 44 62.5 L 44.5 64 L 46 63.5 L 43.5 67 L 42.5 66 L 40 67.5 L 45.5 59 L 46.5 61 L 48.5 58 Z " /><path fill="rgb(49,145,242)" stroke="rgb(49,145,242)" stroke-width="1" opacity="0.996078431372549" d="M 54.5 59 L 53.5 61 L 54.5 59 Z " /><path fill="rgb(49,145,242)" stroke="rgb(49,145,242)" stroke-width="1" opacity="0.996078431372549" d="M 86.5 61 L 86 62.5 L 82.5 69 L 82 67.5 L 86.5 61 Z " /><path fill="rgb(49,145,242)" stroke="rgb(49,145,242)" stroke-width="1" opacity="0.996078431372549" d="M 52.5 62 L 52 63.5 L 51 67 L 49 66.5 L 52.5 62 Z " /><path fill="rgb(49,145,242)" stroke="rgb(49,145,242)" stroke-width="1" opacity="0.996078431372549" d="M 42.5 68 L 42 69.5 L 40.5 72 L 39 69.5 Q 40.8 71.1 42.5 68 Z " /><path fill="rgb(49,145,242)" stroke="rgb(49,145,242)" stroke-width="1" opacity="0.996078431372549" d="M 48.5 68 L 49 69.5 L 45.5 74 L 46 72.5 L 48.5 68 Z " /><path fill="rgb(49,145,242)" stroke="rgb(49,145,242)" stroke-width="1" opacity="0.996078431372549" d="M 80.5 70 L 81 71.5 L 73.5 84 L 74 82.5 L 80.5 70 Z " /><path fill="rgb(49,145,242)" stroke="rgb(49,145,242)" stroke-width="1" opacity="0.996078431372549" d="M 38.5 71 L 37.5 73 L 38.5 71 Z " /><path fill="rgb(49,145,242)" stroke="rgb(49,145,242)" stroke-width="1" opacity="0.996078431372549" d="M 39.5 73 L 39 74.5 L 37.5 77 L 38 75.5 L 39.5 73 Z " /><path fill="rgb(49,145,242)" stroke="rgb(49,145,242)" stroke-width="1" opacity="0.996078431372549" d="M 36.5 74 L 36 75.5 L 35 78.5 L 37 78.5 L 34.5 82 L 33 79.5 L 36.5 74 Z " /><path fill="rgb(49,145,242)" stroke="rgb(49,145,242)" stroke-width="1" opacity="0.996078431372549" d="M 44.5 75 L 43 77.5 L 39.5 84 L 39 82.5 L 44.5 75 Z " /><path fill="rgb(49,145,242)" stroke="rgb(49,145,242)" stroke-width="1" opacity="0.996078431372549" d="M 32.5 81 L 31.5 83 L 32.5 81 Z " /><path fill="rgb(49,145,242)" stroke="rgb(49,145,242)" stroke-width="1" opacity="0.996078431372549" d="M 33.5 83 L 32 85.5 L 31.5 87 L 30 84.5 Q 31.8 86.1 33.5 83 Z " /><path fill="rgb(49,145,242)" stroke="rgb(49,145,242)" stroke-width="1" opacity="0.996078431372549" d="M 72.5 85 L 71 87.5 L 70.5 89 L 70 87.5 L 72.5 85 Z " /><path fill="rgb(49,145,242)" stroke="rgb(49,145,242)" stroke-width="1" opacity="0.996078431372549" d="M 29.5 86 L 28.5 88 L 29.5 86 Z " /><path fill="rgb(49,145,242)" stroke="rgb(49,145,242)" stroke-width="1" opacity="0.996078431372549" d="M 37.5 86 L 37 87.5 L 35.5 91 L 35 89.5 L 37.5 86 Z " /><path fill="rgb(49,145,242)" stroke="rgb(49,145,242)" stroke-width="1" opacity="0.996078431372549" d="M 30.5 88 L 29 90.5 L 23.5 100 L 24 98.5 L 23.5 97 L 22 97.5 L 25 96.5 L 26 94.5 L 25 92.5 L 28 91.5 L 27 89.5 Q 28.8 91.1 30.5 88 Z " /><path fill="rgb(49,145,242)" stroke="rgb(49,145,242)" stroke-width="1" opacity="0.996078431372549" d="M 69.5 90 L 68 92.5 L 67.5 94 L 67 92.5 L 69.5 90 Z " /><path fill="rgb(49,145,242)" stroke="rgb(49,145,242)" stroke-width="1" opacity="0.996078431372549" d="M 32.5 94 L 32 95.5 L 31.5 97 L 31 95.5 L 32.5 94 Z " /><path fill="rgb(49,145,242)" stroke="rgb(49,145,242)" stroke-width="1" opacity="0.996078431372549" d="M 66.5 95 L 66 96.5 L 65.5 98 L 65 96.5 L 66.5 95 Z " /><path fill="rgb(49,145,242)" stroke="rgb(49,145,242)" stroke-width="1" opacity="0.996078431372549" d="M 29.5 99 L 28.5 101 L 29.5 99 Z " /><path fill="rgb(48,145,242)" stroke="rgb(48,145,242)" stroke-width="1" opacity="1" d="M 29 26 L 65.5 26 L 67 27.5 L 64 31.5 L 64 34 Q 61.3 32.9 62 35.5 L 51 55 Q 48.3 56.1 49 53.5 L 64 30.5 L 64 28 L 29.5 28 L 29 26 Z " /><path fill="rgb(48,145,242)" stroke="rgb(48,145,242)" stroke-width="1" opacity="1" d="M 74 27 L 106 27.5 L 82 67.5 L 82 70 Q 79.3 68.9 80 71.5 L 65 98 L 106.5 98 L 107 101 L 29 100.5 L 30 97 Q 32.7 98.1 32 95.5 L 34 91 Q 36.7 92.1 36 89.5 L 49 69.5 L 49 67 Q 51.7 68.1 51 65.5 L 70 35.5 L 70 33 Q 72.7 34.1 72 31.5 L 74 27 Z " /><path fill="rgb(48,145,242)" stroke="rgb(48,145,242)" stroke-width="1" opacity="1" d="M 48.5 56 L 49 57.5 L 43.5 65 L 44 63.5 L 48.5 56 Z " /><path fill="rgb(48,145,242)" stroke="rgb(48,145,242)" stroke-width="1" opacity="1" d="M 42.5 66 L 43 67.5 L 25 95.5 L 23 101 L 21 100.5 Q 24.6 98.6 24 94 Q 26.7 95.1 26 92.5 L 42.5 66 Z " /></svg>